<svg width="119" height="130" viewBox="0 0 119 130" fill="none" xmlns="http://www.w3.org/2000/svg">
<path fill-rule="evenodd" clip-rule="evenodd" d="M81.6168 6.13554C82.7254 3.67123 83.7981 1.28265 84.0006 0.827491C84.2032 0.37233 84.3969 0 84.4314 0C84.4657 -8.07238e-05 85.9002 0.69929 87.6191 1.55407L90.7444 3.10814L90.7451 3.5193C90.7465 4.38836 91.1863 5.31531 92.007 6.17897C93.2201 7.45557 94.868 8.12983 96.6022 8.05903C97.2898 8.03094 97.4465 7.99533 97.9374 7.75556C98.2434 7.60621 98.5323 7.4349 98.5797 7.37492C98.627 7.31485 98.7341 7.26577 98.8175 7.26577C98.9399 7.26577 102.207 8.83921 105.628 10.5451C107.325 11.3915 109.184 13.0498 110.448 14.8433C111.795 16.7558 113.65 20.5935 114.472 23.1713C115.061 25.017 115.53 27.3426 115.683 29.1734C115.781 30.3398 115.81 34.4712 115.722 34.6216C115.683 34.6885 115.527 34.3052 115.295 33.5701C114.622 31.4341 113.833 29.6256 112.778 27.797C111.333 25.292 109.861 23.5404 107.879 21.9702C106.32 20.7345 105.402 20.2634 104.554 20.2634C103.057 20.2634 102.113 21.2685 100.611 24.4614C100.225 25.2829 99.7287 26.3675 99.5088 26.8716L99.1087 27.7883L98.8587 27.6116C98.5303 27.3798 96.8346 26.5151 95.7703 26.0371C94.8648 25.6302 92.99 24.8641 92.9062 24.8666C92.7478 24.8714 94.8537 26.0821 97.3067 27.3966C98.6495 28.1163 98.9937 28.3857 99.1041 28.8043C99.2446 29.3367 99.2001 30.0636 98.9914 30.6473C98.5649 31.8395 97.9729 32.5873 97.183 32.9315C97.1049 32.9656 97.0466 32.9789 96.9924 33.0021C96.6905 33.1317 96.5209 33.5697 93.7974 39.6361C92.5308 42.4571 89.9577 48.1801 88.0794 52.3539C84.4201 60.485 83.8932 61.6786 83.9407 61.7285C84.0049 61.7961 91.3744 56.4719 92.3753 55.6348C93.7465 54.4881 94.2891 53.3374 94.4335 51.2705C94.7145 47.2442 94.8601 46.0588 95.2746 44.4202C95.5504 43.3298 95.8447 42.5304 96.3564 41.4816C96.8272 40.5164 97.1642 40.015 97.304 40.0714C97.3615 40.0947 97.8623 40.4449 98.4168 40.8498C98.9714 41.2546 99.4528 41.5747 99.4866 41.5609C99.5204 41.5472 99.7654 41.2454 100.031 40.8901C100.636 40.0802 102.018 38.6299 102.84 37.9423C104.528 36.529 105.864 36.0079 107.803 36.0066C108.538 36.006 108.63 36.0212 108.588 36.1365C108.547 36.248 107.325 38.2509 104.923 42.1415L104.349 43.07L104.598 44.2809C104.735 44.9469 104.87 45.5528 104.898 45.6275C104.946 45.7538 105.679 46.3186 106.333 46.7326L106.616 46.9122L107.958 46.6686C108.696 46.5347 109.404 46.3785 109.532 46.3217C109.694 46.2497 110.509 45.2414 112.223 42.994C113.575 41.2206 114.806 39.6286 114.957 39.4561L115.233 39.1426L115.428 39.4442C115.973 40.2881 116.706 42.1867 117.057 43.659C117.576 45.8429 117.6 48.1146 117.123 49.9564C116.344 52.9638 114.12 55.4335 110.777 57.0013C108.869 57.8964 107.272 58.3483 104.946 58.6516C103.238 58.8744 102.682 59.0251 101.792 59.5077C101.446 59.6951 99.3181 61.3174 96.4607 63.5717L91.7047 67.3238L89.5759 67.3266C88.4051 67.3282 87.449 67.3023 87.4512 67.2689C87.4534 67.2356 87.9108 66.8436 88.4676 66.3976C94.186 61.818 94.6457 61.4075 94.8446 60.7026C95.1144 59.7466 94.9328 59.1332 94.2915 58.8343C93.7842 58.5979 93.2028 58.6082 92.6252 58.8641C92.372 58.9763 91.3364 59.6661 90.3239 60.3972C89.3113 61.1282 86.7171 62.987 84.559 64.5279L80.6352 67.3295H79.1921C77.9707 67.3295 77.7661 67.3126 77.8612 67.2196C77.923 67.1591 78.5603 66.7287 79.2776 66.2629C83.6584 63.4186 90.7534 58.389 92.8476 56.6435C94.227 55.4936 95.0545 54.0426 95.225 52.475C95.2726 52.0362 95.2714 52.0381 95.1191 52.6302C94.9216 53.3985 94.5291 54.2285 94.0385 54.9157C93.4192 55.7833 92.9952 56.1152 87.5845 59.9689C83.3424 62.9903 79.2846 65.9748 78.1094 66.9379L77.6316 67.3295H75.9807C75.0727 67.3295 74.3298 67.3164 74.3298 67.3003C74.3298 67.2596 74.68 66.4766 78.1088 58.8527C85.5744 42.2526 89.9637 32.4858 90.4438 31.4056L90.9635 30.2364L90.7587 30.0943C90.6461 30.0161 90.5181 29.9519 90.4742 29.9517C90.4303 29.9514 88.3006 34.6103 85.7413 40.3048C76.5095 60.8469 74.0417 66.3288 73.8032 66.8249L73.5605 67.3295H72.7133C72.2473 67.3295 71.8806 67.3023 71.8983 67.2689C71.9161 67.2356 73.3997 63.9388 75.1951 59.9426C76.9906 55.9464 80.8266 47.4121 83.7196 40.9775L88.9797 29.2782L88.8271 28.7585C88.5628 27.8577 88.6568 27.2877 89.2744 26.048C89.6784 25.2369 89.9654 24.9345 90.6335 24.6157C90.8908 24.4929 91.1391 24.3444 91.1852 24.2857C91.2969 24.1437 93.352 19.5603 93.6041 18.891C93.8779 18.164 93.9224 17.8345 93.8136 17.3391C93.4224 15.5591 91.6557 13.9224 89.5568 13.3957C89.0002 13.256 88.7103 13.2298 88.0609 13.2605C87.0005 13.3106 86.5243 13.5004 85.8887 14.126L85.4144 14.5928L82.4298 13.1084C80.7884 12.292 79.4006 11.5849 79.346 11.5373C79.3311 11.5243 79.3157 11.5184 79.3047 11.5079C79.2254 11.4323 79.3765 11.1154 81.6168 6.13554ZM93.2362 7.99614C92.3107 7.5233 91.6849 7.04166 91.0373 6.3041C90.7715 6.00136 90.4246 5.52255 90.2663 5.24007C89.9062 4.59697 89.8961 4.68917 90.2445 5.44085C91.0568 7.19416 92.701 8.54196 94.6964 9.09045C95.7383 9.37688 97.0422 9.39028 97.8415 9.1229C98.4185 8.92979 98.811 8.74137 98.8843 8.62229C98.9094 8.58152 99.0475 8.61963 99.1912 8.70706C99.3349 8.79449 100.177 9.20097 101.063 9.61035C103.668 10.8141 105.305 11.6059 106.165 12.0787C107.088 12.5867 106.898 12.3783 105.743 11.6164C104.717 10.9402 103.313 10.1771 100.921 8.9964L98.9373 8.01729L98.5428 8.24035C97.8333 8.64158 97.327 8.75331 96.2306 8.75049C95.0288 8.74734 94.3927 8.58717 93.2362 7.99614ZM82.4611 10.9379C82.4611 10.9174 82.2281 10.7773 81.9433 10.6264C81.6584 10.4756 81.2944 10.2946 81.1341 10.2242L80.8427 10.0963L80.693 10.4638C80.6107 10.6659 80.5433 10.8591 80.5433 10.8931C80.5433 10.9535 81.9536 11.706 82.0666 11.706C82.1167 11.706 82.4611 11.0353 82.4611 10.9379ZM19.1736 13.8121C21.2503 12.3401 23.4833 11.6824 27.1519 11.4623C28.4472 11.3846 31.0294 11.431 32.2047 11.5531C34.6861 11.811 37.6769 12.6523 40.0814 13.7687C41.0202 14.2047 43.0074 15.2863 43.1471 15.4373C43.227 15.5238 43.1676 15.5184 41.5745 15.294C40.6074 15.1578 37.0341 15.1373 35.7829 15.2609C33.3241 15.5035 30.5539 16.3979 28.5089 17.609C26.5042 18.7963 25.8627 19.5286 25.7891 20.7138C25.7017 22.1237 26.4907 23.573 29.2579 27.085C29.7034 27.6505 30.068 28.1398 30.068 28.1724C30.068 28.205 29.904 28.3393 29.7036 28.4708C28.9419 28.9709 26.1708 31.459 25.3119 32.414L24.9667 32.7978L25.6889 32.2919C26.086 32.0136 27.0295 31.2914 27.7855 30.6869C30.1694 28.7807 30.3471 28.6594 30.7569 28.6594C31.5677 28.6594 32.3572 29.2176 33.1039 30.3188C33.6048 31.0577 33.6938 31.3344 33.6872 32.1361L33.6816 32.8275L42.8635 44.8168C47.9136 51.4109 52.1747 56.9669 52.3327 57.1634C52.6167 57.5166 52.6196 57.5179 52.5819 57.2785C52.5609 57.1453 52.2489 54.9474 51.8887 52.3943C50.9954 46.0641 50.9613 45.9036 50.2749 44.7869C49.6532 43.7755 49.3604 43.5443 46.6757 41.9448C43.9166 40.3011 41.8593 38.5343 40.5589 36.6921C39.9411 35.8169 39.7715 35.5018 39.8308 35.3393C39.8554 35.2718 40.3355 34.9411 40.8976 34.6044C41.4597 34.2677 41.9634 33.9614 42.017 33.9237C42.0906 33.8719 42.0039 33.6123 41.6587 32.8518C41.1286 31.6836 40.6581 30.2511 40.4127 29.0582C40.2719 28.3734 40.2389 27.9582 40.2368 26.843C40.2343 25.4986 40.2394 25.4541 40.4904 24.6633C40.6314 24.2192 40.8705 23.6061 41.0218 23.3006L41.297 22.7453L41.455 22.9556C41.5418 23.0713 42.4714 24.6555 43.5208 26.4761C44.5701 28.2966 45.4676 29.8184 45.5153 29.8577C45.5628 29.897 46.1424 30.0684 46.8032 30.2385L48.0047 30.5478L48.8237 30.028C49.4759 29.614 49.6649 29.452 49.752 29.2325C49.9355 28.7706 50.5496 26.6067 50.5496 26.4224C50.5496 26.238 50.1094 25.2212 48.2505 21.1111C46.9396 18.2128 46.8261 17.9389 46.9017 17.8593C47.0003 17.7556 49.173 17.7414 49.923 17.8396C54.419 18.4279 57.4696 20.3961 59.0607 23.7348C59.8607 25.4137 60.0589 26.3882 60.115 28.919C60.1819 31.9402 59.9756 33.3593 59.059 36.1831C58.2306 38.7352 58.2216 39.0429 58.8731 42.5451C59.0672 43.5886 59.7574 47.2941 60.407 50.7797C61.0566 54.2652 61.7987 58.254 62.0561 59.6436C62.3134 61.0332 62.5519 62.2498 62.5861 62.3471C62.6388 62.4966 62.6691 62.4492 62.7822 62.0406C63.3075 60.144 63.9293 57.2121 64.1602 55.5428C64.6584 51.9417 64.7224 46.8322 64.2847 45.6026C64.1997 45.364 63.9716 44.9781 63.7777 44.745C63.546 44.4666 63.466 44.3212 63.5444 44.3212C63.6101 44.3212 64.4671 44.4659 65.449 44.6429C67.3183 44.9798 70.9986 45.5678 71.7216 45.6451C72.0667 45.682 72.1016 45.6756 71.9134 45.6099C71.5571 45.4855 65.8026 44.2774 64.1275 43.9753C62.9665 43.7659 62.6266 43.6772 62.6085 43.579C62.5958 43.5094 62.9866 41.0776 63.477 38.1751C63.9675 35.2726 64.3883 32.7773 64.4123 32.6302L64.4559 32.3626L64.94 32.4172C65.405 32.4696 65.4259 32.4642 65.4664 32.2811C65.499 32.1338 67.5777 17.3715 67.7792 15.8567C67.8514 15.314 67.8785 15.296 68.475 15.3967C69.3014 15.5362 80.1732 17.5718 81.1954 17.7784L82.1159 17.9645L82.1378 18.2058C82.1498 18.3384 81.725 20.663 81.1938 23.3716C80.192 28.4788 78.9324 34.952 78.9324 34.9928C78.9324 35.0056 79.1437 35.0599 79.402 35.1134L79.8716 35.2107L79.8317 35.5477C79.7952 35.8561 78.0676 46.1701 77.9667 46.6826C77.9258 46.8901 77.8971 46.9046 77.5264 46.9051C76.6833 46.906 75.9603 47.2964 75.5347 47.9802C74.82 49.1286 73.3839 53.4476 72.7651 56.3097C72.3559 58.2024 72.0935 60.177 71.684 64.4439C71.5359 65.9872 71.4148 67.2678 71.4148 67.2897C71.4148 67.3116 69.053 67.3295 66.1665 67.3295H60.9182L60.8404 66.946C60.7289 66.3968 59.697 61.1185 58.3666 54.2924C57.0714 47.647 57.0513 47.5553 56.797 47.0942C56.5347 46.6186 55.9856 46.1378 55.5626 46.0132C55.2279 45.9145 55.1814 45.9205 54.8544 46.1033C54.4216 46.3454 54.1284 46.7872 53.9535 47.4605C53.9328 47.5404 53.9126 47.5926 53.8963 47.646C53.7848 48.0126 53.8622 48.4366 55.2565 58.328C55.945 63.2122 56.4947 67.2356 56.4778 67.2689C56.461 67.3022 55.4223 67.3294 54.1696 67.3293L51.892 67.3291L51.3934 66.6642C50.949 66.0714 35.2578 45.564 31.1854 40.2536C30.304 39.1042 29.3675 37.8972 29.1044 37.5714L28.626 36.979L28.4218 37.148C28.3039 37.2456 28.2354 37.3661 28.2598 37.4328C28.3001 37.5433 33.8514 44.8162 45.626 60.1848C48.5857 64.0478 51.0078 67.2356 51.0085 67.2689C51.0093 67.3023 50.5995 67.3295 50.0979 67.3295C49.3396 67.3295 49.1596 67.3057 49.0305 67.1882C48.9451 67.1105 48.1381 66.0842 47.2371 64.9076C46.3362 63.7309 41.3942 57.2735 36.2549 50.5577L26.9106 38.3471H26.5852C25.8381 38.3471 25.1542 37.8848 24.4239 36.8859C23.8871 36.1517 23.7813 35.8408 23.7794 34.9906L23.7777 34.2579L22.2403 32.2457C20.1236 29.4755 19.788 29.0941 19.2188 28.8106C18.8159 28.61 18.6622 28.5788 18.0776 28.5788C17.2523 28.5787 16.8664 28.6715 16.0551 29.0653C15.2593 29.4516 14.8211 29.7671 14.1586 30.4306C12.8228 31.7684 12.2713 33.4262 12.6863 34.8566L12.833 35.3622L12.648 35.5708C12.4801 35.7601 8.35828 39.2615 7.76439 39.7193C7.54123 39.8913 7.5048 39.8982 7.41919 39.7849C7.36649 39.7153 6.73378 38.9001 6.01317 37.9734C3.63968 34.921 -0.00452167 30.0685 4.23803e-06 29.9664C0.00207541 29.9185 4.79631 25.8419 5.20364 25.5417C5.32999 25.4485 5.41521 25.4578 5.80022 25.6068C6.46123 25.8623 7.59163 25.859 8.32061 25.5992C9.7442 25.0918 10.9509 24.1273 11.7393 22.8664C12.2835 21.9962 12.4621 21.3769 12.467 20.3442L12.4709 19.4965L13.6232 18.4873C16.3394 16.1086 18.4932 14.2944 19.1736 13.8121ZM92.6756 13.5743C91.6688 12.793 90.3972 12.2426 89.2909 12.1091C88.096 11.965 87.2664 12.0693 86.4969 12.4601C85.71 12.8599 85.5193 13.0451 86.1432 12.8037C87.5817 12.2473 89.159 12.3604 90.8831 13.1436C92.8528 14.0385 94.2019 15.5224 94.6656 17.3044L94.8158 17.8819L94.782 17.2764C94.7414 16.5481 94.5234 15.8942 94.0777 15.1644C93.6409 14.449 93.2903 14.0513 92.6756 13.5743ZM19.3669 14.9969C19.8732 14.5976 20.3202 14.2387 20.3603 14.1994C20.5169 14.0456 20.3284 14.1527 19.4062 14.741C18.289 15.454 16.3954 16.9368 14.4892 18.5919L13.1402 19.7632L13.137 20.4804C13.1344 21.0607 13.0901 21.3312 12.9049 21.8966C12.0477 24.514 9.35098 26.6805 6.88636 26.732L6.40286 26.7421L6.74805 26.8048C7.22718 26.8918 8.46122 26.7609 8.99666 26.5662C11.6197 25.6127 13.6457 23.0051 13.6508 20.5761L13.652 20.0411L16.0492 17.882C17.3677 16.6944 18.8606 15.3961 19.3669 14.9969ZM77.7728 18.5168C77.5357 18.4586 75.677 18.1012 73.6421 17.7226C71.6072 17.344 69.868 17.0373 69.7772 17.0411C69.5696 17.0499 70.3627 17.4462 71.1297 17.717C71.897 17.9879 73.0949 18.3094 73.862 18.4503C74.6983 18.6039 77.3977 18.7615 77.8517 18.6833L78.2037 18.6227L77.7728 18.5168ZM25.048 20.7074C25.0492 19.7187 25.2005 19.404 26.1833 18.3461C26.606 17.891 26.9343 17.5186 26.9127 17.5186C26.8078 17.5186 25.6902 18.3838 25.366 18.7159C24.8211 19.2743 24.5978 19.8133 24.5592 20.6636C24.52 21.5277 24.6566 22.1389 25.1103 23.1294C25.5323 24.0507 26.1728 24.9565 27.1165 25.967C27.4636 26.3385 27.662 26.5511 27.6867 26.5325C27.7197 26.5077 27.4441 26.0721 26.8009 25.0549C25.4458 22.912 25.0465 21.9217 25.048 20.7074ZM51.9227 18.8992C51.4417 18.7657 50.7721 18.6208 50.4345 18.5771C49.5563 18.4636 47.788 18.3809 47.788 18.4532C47.788 18.5401 48.3751 19.8614 49.9179 23.2474C50.6556 24.8664 51.2581 26.265 51.2568 26.3555C51.2554 26.446 51.0613 27.2047 50.8253 28.0414C50.5893 28.878 50.3962 29.6074 50.3962 29.662C50.3962 29.8333 50.0827 30.0781 49.0921 30.6808C47.2746 31.7865 44.0292 33.8303 44.0292 33.8693C44.0292 33.8907 44.2104 33.8021 44.432 33.6723C44.6535 33.5425 46.0947 32.724 47.6346 31.8533C49.1746 30.9826 50.4789 30.208 50.533 30.132C50.5872 30.0558 50.8765 29.1939 51.176 28.2165C51.6886 26.5434 51.7155 26.4193 51.6343 26.0974C51.5868 25.9093 50.8883 24.2927 50.0819 22.5049C49.2756 20.7171 48.5997 19.1812 48.5801 19.0919C48.5452 18.934 48.569 18.931 49.425 18.9841C52.1873 19.1556 54.7604 20.2018 56.4367 21.8353C58.1402 23.4951 58.9738 25.5089 59.2948 28.7402C59.356 29.3558 59.36 29.31 59.3337 28.294C59.2633 25.5682 58.4656 23.4676 56.8103 21.6488C55.6874 20.415 54.0349 19.4853 51.9227 18.8992ZM106.625 19.9424C106.519 19.8544 106.114 19.611 105.724 19.4019C105.059 19.0454 104.972 19.0201 104.343 18.9989C103.587 18.9736 103.462 19.0044 102.781 19.3863C101.912 19.8734 100.968 21.0305 100.305 22.4213C99.894 23.2849 99.1616 25.2565 99.3234 25.0647C99.3599 25.0215 99.7784 24.2974 100.253 23.4555C101.606 21.0586 102.292 20.2098 103.299 19.6871C104.131 19.2553 104.821 19.3016 106.28 19.8871C106.738 20.0713 106.789 20.0794 106.625 19.9424ZM44.6305 30.1525C44.6745 30.1063 43.6996 28.1713 42.8558 26.63C42.4513 25.8912 41.9479 25.0022 41.737 24.6543L41.3536 24.0218L41.2681 24.2582C40.8216 25.4945 40.7448 27.0992 41.0688 28.4271C41.1705 28.8435 41.2921 29.275 41.339 29.386C41.4226 29.5836 41.4236 29.5828 41.3868 29.3456C41.2262 28.3101 41.1732 27.0673 41.2585 26.3368C41.3088 25.906 41.3817 25.52 41.4206 25.4791C41.5372 25.3564 41.6892 25.5494 42.3901 26.7104C43.2342 28.1086 44.5914 30.1937 44.6305 30.1525ZM69.6116 32.4941C69.637 32.0945 69.7417 30.3167 69.8445 28.5436C69.9472 26.7704 70.0225 25.3104 70.0118 25.2992C70.0011 25.2879 69.935 25.6125 69.8649 26.0205C69.7947 26.4284 69.5073 28.1064 69.2262 29.7493C68.9451 31.3922 68.685 32.7908 68.6482 32.8574C68.5559 33.0243 68.5606 32.6489 68.6913 29.4264C68.7526 27.9167 68.7995 26.4091 68.7957 26.076C68.7891 25.5067 68.7739 25.5645 68.5411 27.0448C68.4049 27.9106 68.1627 29.4831 68.0029 30.5392C67.8431 31.5952 67.6954 32.4415 67.6748 32.4197C67.6542 32.398 67.638 30.7892 67.6391 28.8446C67.6402 26.9001 67.6275 25.3636 67.6111 25.4302C67.499 25.8836 66.6611 32.6487 66.7112 32.6965C66.7935 32.7749 70.4803 33.4641 70.5312 33.4106C70.5527 33.3879 70.674 32.0462 70.8008 30.4291C70.9275 28.8119 71.0651 27.0733 71.1064 26.5655C71.1478 26.0577 71.171 25.6311 71.1582 25.6177C71.1454 25.6042 70.8146 27.273 70.4232 29.3262C70.0317 31.3793 69.6786 33.0956 69.6385 33.14C69.5923 33.1911 69.5825 32.9544 69.6116 32.4941ZM71.9463 29.7897C72.1145 27.9914 72.2726 26.3112 72.2975 26.0559C72.3225 25.8005 72.3313 25.5917 72.3171 25.5917C72.2855 25.5917 70.7214 33.179 70.7232 33.3236C70.7245 33.4339 70.9235 33.5306 71.3097 33.6084C71.3731 33.6212 71.4206 33.646 71.4598 33.6366C71.6046 33.6017 71.6369 33.0988 71.9463 29.7897ZM72.5695 33.6375C72.6088 33.5415 72.8326 31.7602 73.0668 29.6791C73.301 27.598 73.4812 25.8592 73.4673 25.8151C73.4533 25.771 73.277 26.4747 73.0755 27.3789C71.9808 32.2912 71.7083 33.6017 71.7695 33.6605C71.8065 33.696 71.9855 33.7447 72.1674 33.7686C72.4543 33.8064 72.5075 33.7891 72.5695 33.6375ZM75.7933 25.8809C75.797 25.975 75.8152 25.9941 75.8397 25.9298C75.8618 25.8715 75.8591 25.8018 75.8336 25.775C75.8081 25.7482 75.79 25.7958 75.7933 25.8809ZM73.6669 33.8013C73.6461 33.7795 73.8571 32.0437 74.1357 29.9439C74.4143 27.8441 74.6324 26.0745 74.6203 26.0113C74.6082 25.9481 74.2105 27.508 73.7366 29.4778C72.7186 33.7087 72.6908 33.8208 72.7341 33.8692C72.7359 33.8713 72.7379 33.8732 72.74 33.8754C72.7624 33.8989 72.9826 33.9324 73.2293 33.9498C73.4759 33.9672 74.161 34.0897 74.7517 34.2222C75.8934 34.4781 77.5754 34.7969 77.6072 34.7633C77.622 34.7478 79.0616 27.5477 79.2878 26.3586C79.3131 26.2254 79.3169 26.1346 79.2962 26.1568C79.2754 26.179 78.738 27.8884 78.102 29.9556C76.8252 34.1051 76.7975 34.1897 76.7399 34.1292C76.7178 34.1058 77.0311 32.28 77.4362 30.0719C77.8413 27.8637 78.162 26.0456 78.1488 26.0318C78.1356 26.0179 77.6147 27.7566 76.9912 29.8956C75.9783 33.3704 75.6235 34.4561 75.747 33.7026C76.4199 29.5971 76.9403 26.2853 76.9217 26.2266C76.9085 26.1849 76.4173 27.8979 75.8301 30.0331C75.2429 32.1684 74.7346 33.9335 74.7007 33.9555C74.6667 33.9776 74.656 33.894 74.6769 33.7697C74.866 32.6439 75.7871 26.1967 75.7677 26.1353C75.7538 26.0915 75.3506 27.5734 74.8717 29.4285C73.8723 33.2999 73.719 33.8561 73.6669 33.8013ZM19.846 27.9802C19.9174 27.9051 18.782 27.5131 18.3033 27.4476C18.0023 27.4064 17.7215 27.3762 17.6793 27.3805C16.2127 27.5285 14.9232 28.0766 13.8919 28.9902C12.7328 30.0171 11.912 31.303 11.6264 32.5397C11.5002 33.0865 11.478 34.0065 11.5808 34.4317C11.6321 34.6438 11.6406 34.6237 11.6498 34.2702C11.688 32.7853 12.3398 31.3543 13.5555 30.0863C14.6091 28.9874 15.7708 28.2576 16.982 27.9337C17.7181 27.7368 18.8981 27.7157 19.447 27.8895C19.6522 27.9545 19.8318 27.9953 19.846 27.9802ZM55.6788 33.5041C55.7017 33.4883 55.6147 33.3133 54.9206 31.8693C54.5206 31.0372 54.1758 30.356 54.1544 30.3556C54.0711 30.3539 52.0871 31.5218 50.9457 32.2444C49.6644 33.0557 46.7895 35.0336 46.8884 35.0359C47.0986 35.0406 50.9534 32.828 53.408 31.2937L54.0034 30.9215L54.8052 32.2124C55.2462 32.9224 55.6275 33.5033 55.6526 33.5033C55.6631 33.5033 55.6737 33.5077 55.6788 33.5041ZM74.8668 35.1563C73.5378 34.9104 71.4891 34.565 70.3142 34.3888C69.1393 34.2126 68.1584 34.0684 68.1344 34.0684C67.5654 34.0684 73.4636 35.325 77.0699 35.9721C77.7544 36.0949 78.3555 36.2222 78.4059 36.255C78.4753 36.3001 78.4289 36.8319 78.2151 38.4409C77.7853 41.6757 77.8333 41.628 78.5087 38.1496C78.795 36.6745 78.9045 35.9569 78.8485 35.9206C78.8032 35.8911 78.4325 35.8077 78.0247 35.7352C77.6168 35.6627 76.1958 35.4023 74.8668 35.1563ZM75.7118 34.2694C75.6689 34.2973 75.6339 34.2634 75.6339 34.1942C75.6339 34.0524 75.6799 34.0316 75.7456 34.1435C75.7699 34.1849 75.7547 34.2415 75.7118 34.2694ZM8.26952 37.9363C8.6352 37.6215 8.94281 37.3399 8.95324 37.3106C8.96367 37.2812 8.84286 37.1049 8.68476 36.9188L8.39732 36.5802L7.74528 37.1444C7.38666 37.4546 7.10399 37.7499 7.1171 37.8004C7.13022 37.8509 7.24536 38.031 7.37293 38.2005L7.60483 38.5087L8.26952 37.9363ZM103.735 42.4371C103.809 42.5146 107.545 36.8352 107.545 36.6456C107.545 36.3904 105.576 36.9523 104.792 37.431C104.46 37.6334 103.65 38.258 103.137 38.7065C102.744 39.0501 102.962 38.9979 103.519 38.6146C104.552 37.9048 106.278 37.1474 106.449 37.3283C106.481 37.3616 106.452 37.4864 106.384 37.6056C106.317 37.7248 105.916 38.4218 105.493 39.1544C104.578 40.7412 103.693 42.3929 103.735 42.4371ZM69.581 39.6453C69.6844 39.2821 69.5769 38.9738 69.2669 38.7445C68.9824 38.534 68.7956 38.5038 68.5288 38.6252C68.1979 38.7759 68.0395 39.0464 68.0395 39.4611C68.0395 40.451 69.3084 40.6026 69.581 39.6453ZM74.2511 40.5734C74.363 40.2167 74.2503 39.7891 73.9988 39.6156C73.7663 39.4553 73.404 39.3907 73.2089 39.4748C73.0086 39.5611 72.7308 39.9238 72.6702 40.1783C72.5671 40.6104 73.0282 41.1721 73.486 41.1721C73.7945 41.1721 74.1508 40.8933 74.2511 40.5734ZM6.35361 51.5805C9.99949 46.2566 13.348 41.3799 13.791 40.7489C14.095 40.3159 14.3661 39.9617 14.3937 39.9617C14.4626 39.9617 14.8012 40.2323 21.5492 45.677L27.4903 50.4707L27.8102 50.0826L28.13 49.6946L28.4515 49.9185C28.7291 50.1119 37.1085 56.4779 37.1959 56.5618C37.2135 56.5788 37.1445 56.7804 37.0425 57.0098C36.7843 57.5897 36.7774 58.6514 37.0283 59.148C37.3412 59.7673 38.1465 60.7386 39.7316 62.4089C41.3586 64.1235 42.4158 65.0953 44.1626 66.4826L45.1783 67.2891L37.732 67.3097C33.6366 67.321 30.2359 67.3008 30.1748 67.2649C30.087 67.2131 30.1809 67.0233 30.6243 66.3563C32.1368 64.0809 33.7098 61.5976 33.6384 61.5976C33.5478 61.5976 29.645 66.9719 29.5537 67.2223C29.5217 67.3099 28.5847 67.3295 24.4216 67.3295H19.3285L19.3313 66.9864C19.3328 66.7977 19.3663 66.28 19.4056 65.836L19.4773 65.0286L19.2483 64.8066C19.1223 64.6845 18.9714 64.5846 18.9131 64.5846C18.7471 64.5846 18.4864 65.9742 18.4853 66.8653L18.4847 67.3295H17.3341H16.1834L16.184 66.8249C16.1862 65.0542 16.6341 63.2755 17.4614 61.7511C17.6445 61.4138 17.7934 61.0868 17.7923 61.0246C17.7913 60.9623 15.4551 59.2402 12.6009 57.1978C9.74665 55.1553 7.0562 53.2269 6.62209 52.9126L5.83282 52.3411L6.35361 51.5805ZM59.8026 41.2807C59.7614 41.0254 59.7615 41.0254 60.5444 40.6594C61.3918 40.2633 61.5671 40.226 61.7867 40.395C61.9263 40.5024 61.9252 40.5357 61.7468 41.6556C61.6293 42.3932 61.5917 42.6914 61.4261 42.8728C61.3002 43.0107 61.1004 43.0811 60.7354 43.2257L60.2202 43.4298L60.1465 43.1287C60.0798 42.8555 59.9074 41.9294 59.8026 41.2807ZM116.755 45.6129C116.644 44.6071 116.163 42.5727 115.847 41.7782C115.724 41.4674 115.52 40.9982 115.393 40.7355L115.163 40.2578L114.185 41.494C113.647 42.1738 112.481 43.6866 111.594 44.8555C110.707 46.0244 109.925 46.9981 109.856 47.0195C109.708 47.0655 106.585 47.6312 106.48 47.6312C106.439 47.6312 105.308 46.8628 103.965 45.9236C101.066 43.8959 100.179 43.294 100.335 43.4592C100.519 43.6549 105.596 47.4963 106.034 47.772L106.433 48.0225L108.328 47.7231C109.37 47.5584 110.235 47.4067 110.251 47.3861C110.989 46.402 114.864 41.4072 114.943 41.338C115.109 41.1934 115.302 41.5692 115.669 42.7519C116.139 44.2662 116.306 45.2762 116.348 46.8642C116.397 48.7658 116.2 49.8306 115.541 51.2237C114.716 52.9675 112.993 54.7207 111.016 55.8275C110.348 56.2017 110.624 56.1447 111.357 55.757C114.239 54.2341 116.061 51.9609 116.607 49.2072C116.806 48.205 116.87 46.6559 116.755 45.6129ZM52.7359 58.9345C52.541 58.5394 47.1645 51.5967 42.107 45.2092C40.4371 43.1001 38.975 41.2655 38.8579 41.1323C37.8578 39.9946 49.4854 55.5545 52.3112 59.1353L52.9483 59.9426L52.8922 59.54C52.8613 59.3186 52.791 59.0461 52.7359 58.9345ZM77.8645 41.0583C77.8682 41.1524 77.8864 41.1715 77.9108 41.1071C77.933 41.0489 77.9303 40.9792 77.9048 40.9524C77.8793 40.9256 77.8612 40.9732 77.8645 41.0583ZM82.753 62.4681C83.0524 61.9531 87.7214 51.3553 90.5665 44.7326C91.2991 43.0274 91.8863 41.6195 91.8716 41.604C91.8291 41.5594 86.7604 52.431 84.3754 57.6821C82.0023 62.907 81.9039 63.1315 81.9857 63.1315C82.124 63.1315 82.6131 62.7086 82.753 62.4681ZM52.0113 46.3165C51.7138 45.092 50.8684 43.6929 49.9856 42.9636C49.7262 42.7494 49.3759 42.4928 49.2072 42.3935C49.0384 42.2941 48.9866 42.2755 49.0921 42.3521C49.1976 42.4286 49.6125 42.8395 50.0142 43.265C50.5725 43.8563 50.8192 44.1909 51.0613 44.6845C51.5391 45.6586 51.6794 46.2535 52.0134 48.721C53.1489 57.1106 54.4579 65.7279 54.5242 65.2492C54.5711 64.9104 53.8401 58.4781 53.3063 54.5336C52.9081 51.59 52.198 47.0846 52.0113 46.3165ZM11.5842 47.3764C12.051 46.6289 12.7702 45.1985 13.0354 44.4904C13.1244 44.2526 13.1824 44.0424 13.1642 44.0232C13.1252 43.9821 8.05443 51.3534 8.05305 51.4532C8.05167 51.5562 8.78908 50.8915 9.38236 50.2549C10.0696 49.5175 11.0369 48.253 11.5842 47.3764ZM60.3934 44.3522C60.4008 44.3463 60.545 44.2658 60.7137 44.1735C61.1961 43.9092 61.289 43.9374 61.289 44.3475V44.6968L61.9986 44.8117C62.6603 44.9189 62.71 44.9402 62.735 45.1271C62.7498 45.2373 62.861 45.4591 62.982 45.62C63.1032 45.7809 63.2435 46.0177 63.2939 46.1462C63.4268 46.4842 63.4761 50.7843 63.365 52.3309C63.2244 54.2859 62.8822 56.7537 62.7517 56.7537C62.6732 56.7537 62.5514 56.1419 61.4895 50.4164C60.5421 45.3083 60.3724 44.3691 60.3934 44.3522ZM46.0499 47.0116C46.0678 46.9927 46.7855 46.6705 47.6448 46.2956C48.5041 45.9208 49.259 45.6229 49.3222 45.6336C49.5765 45.677 50.1904 47.4799 50.0665 47.8196C50.0274 47.9266 47.8051 48.9229 47.6055 48.9229C47.5129 48.9229 47.0551 48.3897 46.2278 47.3182C46.1121 47.1684 46.0321 47.0304 46.0499 47.0116ZM107.605 51.3228C107.24 51.0163 103.85 48.6715 102.713 47.9387C101.474 47.1413 100.366 46.4897 100.565 46.676C101.076 47.1553 104.015 49.3623 106.184 50.895C106.679 51.2455 107.085 51.5728 107.085 51.6226C107.085 51.6723 106.833 52.166 106.525 52.7196C105.77 54.0768 105.436 54.7116 105.527 54.6144C105.689 54.4432 106.496 53.3354 107.123 52.4232L107.779 51.4694L107.605 51.3228ZM78.898 47.9014C78.9276 47.6861 78.9677 47.4813 78.987 47.4462C79.0245 47.3779 79.3125 47.4472 79.4181 47.5499C79.4532 47.5841 79.2754 48.0795 79.023 48.6509C78.6556 49.4826 78.535 49.6865 78.4181 49.6733C78.2451 49.6539 76.5637 49.031 76.4092 48.9292C76.3216 48.8713 76.3329 48.8139 76.4728 48.607C76.7645 48.176 77.0251 48.0866 77.8169 48.1464C78.1984 48.1751 78.5855 48.2199 78.6772 48.2457C78.8271 48.2878 78.8495 48.2529 78.898 47.9014ZM48.1716 49.719C48.1716 49.689 48.5772 49.4818 49.0729 49.2584C49.5686 49.035 50.031 48.85 50.1002 48.8471C50.1695 48.8444 50.245 48.9237 50.2682 49.0238C50.3512 49.3831 50.8684 53.2159 50.8381 53.2478C50.7774 53.3116 48.1716 49.8631 48.1716 49.719ZM66.0508 54.9207C66.2028 54.1074 66.2329 53.6565 66.2576 51.8292C66.2735 50.6525 66.2729 49.5081 66.2563 49.2861C66.2397 49.0641 66.2196 49.4819 66.2115 50.2145C66.1944 51.7844 66.0881 53.5117 65.9266 54.8475C65.8628 55.3754 65.8246 55.822 65.8417 55.8401C65.8589 55.8581 65.9529 55.4444 66.0508 54.9207ZM73.3408 59.539C73.7672 56.5174 74.709 52.8706 75.7123 50.3558C75.8496 50.0117 75.9913 49.7302 76.0272 49.7302C76.177 49.7302 78.0886 50.5548 78.0886 50.6194C78.0886 50.8153 73.2528 61.5169 73.1642 61.5169C73.0825 61.5169 73.1184 61.114 73.3408 59.539ZM32.1008 53.9458C32.0164 53.8578 31.3951 53.3339 30.72 52.7817C30.045 52.2295 29.2277 51.5719 28.9038 51.3202L28.315 50.8629L27.9398 51.3662C27.0018 52.6246 24.5379 56.2891 24.5918 56.3456C24.6115 56.3664 24.7384 56.3194 24.8738 56.2412C25.1565 56.078 25.4412 55.6969 27.1146 53.2419C27.7805 52.2651 28.3368 51.4517 28.3509 51.4343C28.3649 51.4169 29.2489 52.0109 30.3154 52.7543C31.3817 53.4975 32.1852 54.0338 32.1008 53.9458ZM66.698 55.0611C66.7601 54.6851 66.8484 53.8132 66.8942 53.1235C66.94 52.4338 66.9662 51.6516 66.9524 51.3851C66.9318 50.9894 66.9164 51.0692 66.8676 51.8208C66.7886 53.0408 66.5389 55.0852 66.3057 56.4216C66.2019 57.0159 66.1321 57.5182 66.1506 57.5376C66.1924 57.5815 66.5465 55.9795 66.698 55.0611ZM33.8372 52.3563C33.855 52.3377 34.231 52.1581 34.6728 51.9574C35.1146 51.7567 35.501 51.5913 35.5314 51.5898C35.5956 51.5865 37.0486 53.4476 37.0486 53.5331C37.0486 53.5645 36.7883 53.7042 36.4701 53.8436L35.8917 54.097L34.9475 53.3696C34.0289 52.6617 33.7708 52.4263 33.8372 52.3563ZM88.6898 53.8903C88.6761 53.876 88.8798 53.37 89.1424 52.766C89.405 52.1619 89.6289 51.6677 89.6401 51.6677C89.6865 51.6677 92.7131 52.9013 92.8363 52.9705C92.9629 53.0416 92.9616 53.0647 92.8128 53.3715C92.6447 53.7183 91.5468 54.9777 91.4125 54.9777C91.3338 54.9777 88.7379 53.941 88.6898 53.8903ZM36.7088 54.7047L37.0896 54.5193C37.2991 54.4173 37.5112 54.3334 37.561 54.3329C37.6747 54.3316 38.7559 55.6986 42.1574 60.1444C47.4735 67.0928 47.6463 67.3295 47.402 67.3295C47.1797 67.3295 44.4732 65.2885 43.0704 64.0631C41.23 62.4555 38.4522 59.4357 38.0741 58.6315C37.8109 58.0719 37.8618 57.8139 38.399 56.9836C38.6311 56.625 38.8105 56.3228 38.7977 56.3121C38.785 56.3015 38.5157 56.0942 38.1993 55.8517C37.8828 55.609 37.418 55.2517 37.1664 55.0576L36.7088 54.7047ZM86.7701 58.2084C86.7438 58.1254 87.9662 55.2832 88.1857 54.9171C88.2456 54.8172 88.3279 54.7355 88.3686 54.7355C88.5093 54.7355 90.4389 55.5543 90.4389 55.6141C90.4389 55.7553 86.8067 58.3239 86.7701 58.2084ZM65.7504 56.1079C65.7504 56.2189 65.7678 56.2644 65.789 56.2088C65.8103 56.1533 65.8103 56.0625 65.789 56.007C65.7678 55.9515 65.7504 55.9969 65.7504 56.1079ZM30.3936 57.5793C30.3124 57.4139 30.1627 57.2336 30.0611 57.1788C29.6438 56.9537 29.1464 57.1092 28.9597 57.5231C28.7723 57.9386 28.8088 58.1896 29.1014 58.4975C29.3103 58.7174 29.4228 58.772 29.6664 58.772C30.0428 58.772 30.3319 58.5482 30.4525 58.1633C30.5282 57.9222 30.5194 57.8354 30.3936 57.5793ZM66.0511 57.7696C66.0548 57.8636 66.073 57.8828 66.0975 57.8184C66.1196 57.7601 66.1169 57.6905 66.0914 57.6637C66.0659 57.6369 66.0478 57.6845 66.0511 57.7696ZM70.7354 61.9609C70.7736 61.6945 70.8919 60.8091 70.9983 59.9935C71.1047 59.1778 71.1777 58.4955 71.1603 58.4773C71.0433 58.3541 70.6419 61.2043 70.6583 62.0416L70.6662 62.4453L70.7354 61.9609ZM102.924 60.4068C102.811 60.2588 103.24 60.0941 104.102 59.9542C104.498 59.89 104.966 59.8338 105.143 59.8294C105.46 59.8216 105.467 59.8275 105.81 60.4078C106.828 62.1252 107.238 63.8064 107.238 66.2598L107.238 67.3295H106.098H104.958L104.916 65.9369C104.885 64.8835 104.835 64.3869 104.712 63.8984C104.431 62.7855 103.802 61.5567 102.924 60.4068ZM93.7837 67.2621C93.7508 67.2062 99.7282 62.4298 101.409 61.1691C101.683 60.9634 101.947 60.794 101.996 60.7926C102.233 60.7864 103.256 62.2767 103.587 63.1108C103.912 63.9269 104.016 64.5439 104.068 65.9772L104.117 67.3295H98.9703C96.1394 67.3295 93.8054 67.2991 93.7837 67.2621ZM27.5741 62.4065C27.7808 61.9859 27.6974 61.5482 27.355 61.2563C27.2645 61.1792 27.0592 61.116 26.896 61.115C26.6612 61.1136 26.5473 61.1694 26.3398 61.3877C26.0463 61.6966 26.0013 62.0126 26.1949 62.4065C26.3389 62.6996 26.5258 62.8085 26.8845 62.8085C27.2432 62.8085 27.4301 62.6996 27.5741 62.4065ZM54.5446 65.6812C54.5483 65.7752 54.5665 65.7944 54.5909 65.73C54.6131 65.6717 54.6103 65.6021 54.5849 65.5753C54.5594 65.5485 54.5413 65.5961 54.5446 65.6812ZM10.255 72.7549C10.6961 72.0101 11.1535 70.63 11.2786 69.6665L11.3725 68.9441H61.7136C107.547 68.9441 112.059 68.9555 112.101 69.0718C112.127 69.142 112.148 69.3509 112.148 69.536C112.149 70.0742 112.433 71.1715 112.761 71.9099C113.816 74.2771 115.829 75.751 118.369 76.0143L118.898 76.0692L118.899 80.5999C118.899 83.0918 118.921 87.1154 118.949 89.5412L119 93.9517L118.508 94.0077C117.82 94.0859 116.845 94.3327 116.294 94.5681C114.13 95.4937 112.382 97.932 112.179 100.308C112.157 100.574 112.122 100.874 112.103 100.974L112.068 101.156H62.4117C35.1005 101.156 12.4439 101.132 12.0636 101.104L11.3723 101.052L11.2405 100.201C10.7058 96.7481 8.3292 94.4037 4.96454 94.0105L4.52345 93.959V85.0156V76.0721L5.10522 76.0203C6.14288 75.928 7.32315 75.5021 8.22426 74.8948C8.89625 74.4419 9.85297 73.4338 10.255 72.7549ZM115.906 77.9566C113.419 77.1209 111.056 74.5843 110.22 71.8535L110.047 71.2853L68.0052 71.305C44.8826 71.3158 23.1291 71.3342 19.6644 71.3458L13.3647 71.367L13.1542 71.9922C12.1992 74.8278 9.93506 77.1807 7.3421 78.0322L6.90063 78.1772L6.92019 85.0371L6.93983 91.8971L7.43844 92.076C8.23132 92.3608 8.7778 92.6403 9.47119 93.116C11.1236 94.2495 12.6788 96.3525 13.1926 98.1484L13.3601 98.7337H61.7122H110.064L110.233 98.1888C111.08 95.4507 113.309 93.0464 115.857 92.1223L116.597 91.8536L116.595 85.0207L116.593 78.1878L115.906 77.9566ZM19.7374 79.1997C20.6311 76.8711 22.7163 75.31 25.2318 75.0862C26.3543 74.9863 27.6742 75.1171 28.6105 75.4209C30.3436 75.9832 31.5512 77.2631 31.9971 79.0101C32.2308 79.926 32.2324 81.4265 32.0005 82.2877C31.5716 83.8805 30.5835 85.4011 28.5272 87.6333C28.0363 88.1661 27.1269 89.2196 26.5063 89.9744L25.378 91.3469L29.027 91.3679L32.6761 91.3888V93.1238V94.8587H26.1941H19.7121V93.3705V91.8822L22.7997 88.4645C26.5121 84.3552 27.0222 83.7025 27.5816 82.3454C27.77 81.8884 27.7984 81.7163 27.8015 81.0119C27.8048 80.2549 27.7887 80.1683 27.5493 79.6564C27.2387 78.9918 26.9149 78.7378 26.22 78.6135C25.8201 78.5419 25.6587 78.5496 25.3099 78.6569C24.3724 78.9453 23.8399 79.7783 23.6617 81.2354L23.6149 81.6188H21.4717H19.3285L19.3298 81.195C19.3316 80.6438 19.5004 79.8171 19.7374 79.1997ZM43.5603 77.1669C44.8104 75.8529 46.3894 75.1084 48.2431 74.959C49.6264 74.8476 51.2656 75.0242 52.3395 75.4004C53.2894 75.7332 53.9944 76.1999 54.7734 77.0117C55.3919 77.6562 55.519 77.84 55.8609 78.5859C56.2256 79.3813 56.4936 80.3127 56.6096 81.1875L56.7238 81.7808H54.4485H52.1872V80.9393C51.9134 79.8044 51.4291 79.1591 50.5888 78.8096C50.2383 78.6638 50.0011 78.6309 49.2787 78.6273C48.442 78.6233 48.3699 78.6363 47.8806 78.8802C47.2014 79.2188 46.7416 79.7267 46.3685 80.5504C45.8539 81.6868 45.6745 82.8364 45.6745 85.0008C45.6745 87.7469 46.0717 89.0646 46.9661 90.067C47.6757 90.8624 49.2512 90.936 49.9286 90.8475C50.6498 90.7533 51.5053 90.3674 51.7739 90.0154C51.7985 89.9832 51.8237 89.9508 51.8492 89.9181C52.1028 89.5923 52.3879 89.2261 52.3879 88.6026C52.3879 87.9164 51.16 87.5531 51.16 87.5531C51.16 87.5531 50.3668 87.4653 49.9286 87.5438C49.5734 87.6075 49.0485 87.7145 49.0485 87.7145V85.9292V84.122L49.9286 84.2027L56.6096 84.3146L56.6429 88.3493V94.2047C56.5733 94.2047 56.5192 94.2046 56.4651 94.2048C56.092 94.2059 55.719 94.2199 50.2609 94.3661C46.1452 94.4764 43.2397 93.5684 41.8863 90.1658C41.357 88.8351 41.1575 87.6953 41.0954 85.6466C40.9753 81.6883 41.7305 79.0902 43.5603 77.1669ZM98.0332 75.2432C98.3497 75.1897 98.6604 75.133 98.7236 75.1173C98.7869 75.1016 99.4601 75.1012 100.219 75.1164C101.289 75.1378 101.739 75.181 102.214 75.308C104.653 75.9597 106.405 77.6936 106.814 79.8595C106.879 80.2018 106.932 80.6287 106.932 80.8081V81.1344H104.71H102.489L102.441 80.8317C102.28 79.8184 101.915 79.2697 101.164 78.9121C100.729 78.705 100.597 78.6815 99.8743 78.6825C98.964 78.6837 98.4413 78.8444 97.9443 79.2758C97.4164 79.7341 97.202 80.5447 97.4466 81.1572C97.5948 81.5283 98.1654 82.0493 98.7812 82.3756C99.0727 82.5301 99.8202 82.8423 100.442 83.0693C103.765 84.2821 105.245 85.2454 106.201 86.8173C107.053 88.219 107.167 90.4326 106.465 91.9368C105.487 94.0314 103.262 95.1335 100.028 95.1254C97.9287 95.1202 96.1857 94.6064 94.7347 93.5653C94.2156 93.1928 93.3967 92.2981 93.0563 91.7315C92.618 91.0019 92.2821 89.7431 92.2806 88.824L92.28 88.4809H94.5318H96.7836L96.8299 89.0662C96.8903 89.8299 97.2405 90.5812 97.7123 90.9591C98.2447 91.3856 98.7521 91.5079 99.9894 91.5082C101.004 91.5083 101.085 91.4965 101.447 91.2943C102.121 90.9182 102.406 90.4363 102.405 89.6743C102.404 88.348 101.779 87.813 99.0305 86.7873C97.4311 86.1903 96.0296 85.5028 95.2384 84.9272C94.0936 84.0943 93.2213 82.8885 92.9619 81.7803C92.7965 81.0741 92.8302 79.8292 93.0334 79.1363C93.6039 77.1901 95.5685 75.6603 98.0332 75.2432ZM59.7145 90.8475C59.3038 89.6045 59.2946 89.413 59.2946 82.0926V75.3218H61.5575H63.8205L63.8218 82.0427C63.8232 89.1944 63.8332 89.4114 64.1954 90.1584C64.4159 90.6133 64.7866 90.9767 65.2775 91.2191C65.6583 91.4071 65.7906 91.4276 66.6219 91.4276C67.5227 91.4276 67.5564 91.4211 68.0794 91.1451C68.4988 90.9238 68.6688 90.7776 68.8635 90.471C68.9492 90.3361 69.0206 90.2325 69.0802 90.1224C69.3951 89.5409 69.3806 88.7808 69.4025 82.2849L69.4259 75.3218H71.6861H73.9462V81.9237C73.9462 89.8056 73.9323 89.99 73.2218 91.5083C72.3413 93.3899 70.7455 94.5603 68.4998 94.9712C66.5696 95.3245 64.6305 95.1395 63.0435 94.4507C61.5266 93.7925 60.2205 92.3787 59.7145 90.8475ZM78.242 81.6448C76.5966 78.2104 75.2503 75.3824 75.2503 75.3601C75.2503 75.3378 76.3458 75.3292 77.6847 75.3409L80.1192 75.3622L81.8011 79.5404C82.7262 81.8385 83.495 83.7061 83.5095 83.6908C83.5241 83.6755 84.2919 81.7953 85.2159 79.5126L86.8958 75.3622L89.3193 75.3409C90.6523 75.3292 91.743 75.3401 91.743 75.3653C91.743 75.3904 90.414 78.1824 88.7897 81.5696L85.8363 87.7282V91.2934V94.8587H83.535H81.2337V91.3738V87.8889L78.242 81.6448ZM17.2216 108.906C16.4905 107.378 16.2795 106.408 16.208 104.245L16.1592 102.77H17.274H18.3888L18.4368 103.023C18.4632 103.161 18.4847 103.553 18.4847 103.893C18.4847 105.265 18.7145 106.473 19.1717 107.503C19.8342 108.995 20.7948 110.126 22.1394 110.995C22.3564 111.136 23.3402 111.572 24.3257 111.966C25.3112 112.36 27.1875 113.119 28.4954 113.652C29.8033 114.186 35.3955 116.464 40.9225 118.714C46.4494 120.964 52.9736 123.623 55.4207 124.623C61.2641 127.01 61.6087 127.164 61.8783 127.08C61.9143 127.069 61.9489 127.053 61.9952 127.038C62.3107 126.935 64.0191 126.244 70.7628 123.493C73.4707 122.388 83.0126 118.502 93.7375 114.137C95.6993 113.339 98.0241 112.398 98.9037 112.047C99.7832 111.696 100.774 111.26 101.105 111.079C102.856 110.12 104.333 108.067 104.751 106.011C104.811 105.716 104.883 104.866 104.911 104.123L104.961 102.77H106.145H107.329L107.278 103.921C107.122 107.393 106.342 109.465 104.444 111.449C103.311 112.632 102.126 113.43 100.718 113.957C100.123 114.18 80.6331 122.103 66.7355 127.772C62.1495 129.643 61.8196 129.761 61.4712 129.666C61.1317 129.573 60.4567 129.299 32.5227 117.923C28.3247 116.213 24.2342 114.552 23.4325 114.231C22.6309 113.91 21.7679 113.539 21.5148 113.407C19.7306 112.476 18.1236 110.791 17.2216 108.906ZM30.068 104.277C30.068 103.907 30.091 103.58 30.1191 103.551C30.1472 103.521 30.8721 103.497 31.73 103.497H33.2898V104.223V104.95H32.9062H32.5227V105.757V106.565H34.1336H35.7445V105.757V104.95H35.3993H35.0541V104.222V103.494L36.6459 103.515L38.2376 103.537L38.2598 104.244L38.2819 104.95H37.8954H37.5089V107.408V109.866L37.8732 109.89L38.2376 109.915L38.2598 110.621L38.2819 111.328H36.668H35.0541V110.601V109.875H35.3993H35.7445V108.946V108.018H34.1336H32.5227V108.946V109.875H32.9062H33.2898V110.601V111.328H31.6789H30.068V110.729C30.068 109.911 30.0876 109.875 30.5264 109.875H30.8918L30.8529 107.473C30.8265 105.841 30.7866 105.052 30.7287 105.012C30.6817 104.979 30.5139 104.952 30.3556 104.951L30.068 104.95V104.277ZM39.4069 109.774C39.4486 109.718 39.9217 108.283 40.4583 106.585L41.4339 103.497H42.4217H43.4096L44.2218 106.141C45.2331 109.433 45.33 109.816 45.504 109.855C45.5464 109.864 45.5934 109.854 45.6593 109.859L45.947 109.884V110.606V111.328H44.4895H43.032L43.0325 111.146C43.0328 111.046 43.0549 110.721 43.0816 110.423L43.1302 109.883L43.4482 109.858L43.7662 109.834L43.622 109.328L43.4778 108.821L42.3612 108.843L41.2446 108.865L41.153 109.148C41.1026 109.303 41.0381 109.53 41.0096 109.653C40.9584 109.872 40.9615 109.875 41.3429 109.875H41.7279V110.601V111.328H40.2604H38.7928L38.8404 111.025C38.8666 110.859 38.8883 110.532 38.8888 110.298C38.8896 109.886 38.8953 109.875 39.1104 109.875C39.2318 109.875 39.3652 109.829 39.4069 109.774ZM46.5607 104.94V104.216V103.493L47.6895 103.515L48.8183 103.537L50.2784 105.98L51.7386 108.423L51.7886 107.999C51.816 107.765 51.8419 106.985 51.8461 106.266L51.8537 104.959L51.5277 104.934L51.2016 104.91L51.1795 104.203L51.1573 103.497H52.5794H54.0016V104.223V104.95H53.7331H53.4646V108.142V111.333L52.6024 111.31L51.7402 111.287L50.2819 108.891L48.8236 106.495L48.7728 106.873C48.7448 107.081 48.719 107.839 48.7153 108.558L48.7086 109.865L49.0346 109.89L49.3606 109.915L49.3828 110.621L49.4049 111.328H47.9828H46.5607V110.601V109.875H46.8675H47.1744L47.1646 108.321C47.1592 107.466 47.1333 106.367 47.1071 105.878L47.0593 104.99L46.81 104.965L46.5607 104.94ZM54.6152 104.277C54.6152 103.907 54.6383 103.58 54.6664 103.551C54.7457 103.467 57.5048 103.49 58.0898 103.579C59.3243 103.767 60.5262 104.862 60.9111 106.148C61.2113 107.152 61.112 108.409 60.6587 109.344C60.4395 109.796 59.7231 110.562 59.2573 110.843C58.5688 111.257 58.1372 111.328 56.2868 111.328H54.6152V110.601V109.875H54.9221H55.2289V107.461C55.2289 105.514 55.2395 105.074 55.0621 104.976C55.0005 104.942 54.9161 104.95 54.8007 104.95C54.6194 104.95 54.6152 104.935 54.6152 104.277ZM61.1395 104.867C61.0548 104.78 61.0589 104.607 61.0589 104.186V103.497H62.6698H64.2807V104.223V104.95H64.0123C63.8646 104.95 63.7438 104.98 63.7438 105.017C63.7438 105.122 64.562 106.515 64.6391 106.542C64.7008 106.564 65.5848 105.124 65.5848 105.001C65.5848 104.973 65.4467 104.95 65.278 104.95H64.9711V104.223V103.497H66.5437H68.1162V104.223V104.95H67.8567C67.608 104.95 67.552 105.015 66.5142 106.514L65.4314 108.078V108.976V109.875H65.8533H66.2752L66.2759 110.177C66.2762 110.344 66.2983 110.671 66.3249 110.904L66.3733 111.328H64.6749H62.9767V110.601V109.875H63.3602H63.7438V108.943V108.011L62.7657 106.522C61.8651 105.151 61.7664 105.029 61.5192 104.985C61.3165 104.949 61.203 104.933 61.1395 104.867ZM68.8202 104.546C68.8066 104.347 68.8174 104.029 68.8441 103.84L68.8928 103.497H70.41C71.9098 103.497 71.9281 103.499 72.0059 103.679C72.0493 103.779 72.5253 104.996 73.0638 106.383C73.6022 107.771 74.0677 108.906 74.0983 108.906C74.129 108.906 74.4577 108.061 74.829 107.029C75.2003 105.997 75.6404 104.78 75.8071 104.324L76.1101 103.497H77.6747H79.2392V104.223V104.95H78.894H78.5488V107.412V109.875H78.8557H79.1625V110.601V111.328H77.7788H76.395L76.4171 110.621L76.4393 109.915L76.6886 109.89L76.9379 109.864L76.9368 107.75C76.9361 106.588 76.9088 105.681 76.8761 105.735C76.8433 105.789 76.3519 107.052 75.7841 108.541L74.7517 111.248L74.0362 111.228L73.3207 111.207L72.2921 108.631C71.7265 107.215 71.2459 106.037 71.2242 106.014C71.2025 105.991 71.1847 106.851 71.1847 107.924V109.875H71.4148H71.6449V110.601V111.328H70.2154H68.7858L68.8346 110.953C68.8614 110.747 68.8834 110.42 68.8834 110.227V109.875H69.2286H69.5737V107.454V105.034L69.4011 104.994C69.3063 104.973 69.1423 104.945 69.0368 104.932C68.8682 104.912 68.842 104.866 68.8202 104.546ZM81.3922 106.752C81.9291 105.057 82.3918 103.63 82.4206 103.581C82.4555 103.522 82.7967 103.5 83.443 103.515L84.4133 103.537L85.3767 106.686L86.3401 109.834L86.6252 109.859L86.9103 109.884V110.606V111.328H85.4438H83.9774L84.0237 111.146C84.049 111.046 84.0704 110.719 84.0709 110.42L84.072 109.875H84.4223C84.729 109.875 84.767 109.856 84.7274 109.724C84.7025 109.642 84.6383 109.415 84.5847 109.22L84.4873 108.865L83.3626 108.843L82.2378 108.821L82.0896 109.328L81.9414 109.834L82.3163 109.859L82.6912 109.883V110.605V111.328H81.2721H79.8529V110.606V109.884L80.1345 109.859L80.4161 109.834L81.3922 106.752ZM87.5239 104.95V104.223V103.497L88.6554 103.498L89.7869 103.499L90.0627 103.962C92.4003 107.888 92.6887 108.348 92.7493 108.247C92.7852 108.188 92.8151 107.421 92.8158 106.544L92.8169 104.95H92.5101H92.2033V104.223V103.497H93.6224H95.0415V104.223V104.95H94.7347H94.4279V108.142V111.333L93.5745 111.31L92.7212 111.287L91.2853 108.925C90.4955 107.626 89.8267 106.539 89.7989 106.51C89.7712 106.481 89.7485 107.226 89.7485 108.166V109.875H90.0554H90.3622V110.601V111.328H88.9431H87.5239V110.601V109.875H87.8308H88.1376V107.412V104.95H87.8308H87.5239ZM59.2929 107.389C59.2904 106.372 58.9502 105.655 58.2723 105.237C58.0472 105.098 57.7735 105.018 57.3927 104.981L56.8398 104.927V107.401V109.875L57.2426 109.874C57.8563 109.873 58.2032 109.737 58.6119 109.334C59.1147 108.84 59.2951 108.324 59.2929 107.389ZM83.3432 107.453C83.9153 107.453 83.9945 107.435 83.9893 107.311C83.986 107.234 83.8389 106.7 83.6624 106.125L83.3415 105.08L83.0163 106.177C82.8375 106.781 82.6912 107.315 82.6912 107.364C82.6912 107.422 82.9186 107.453 83.3432 107.453ZM42.38 107.453C42.8528 107.453 43.0308 107.425 43.0276 107.352C43.0175 107.117 42.3702 105.159 42.3272 105.233C42.2565 105.354 41.7279 107.214 41.7279 107.342C41.7279 107.427 41.8783 107.453 42.38 107.453ZM26.1561 107.159C26.1564 106.832 26.4219 106.414 26.7134 106.281C26.8497 106.219 27.013 106.182 27.0763 106.199C27.4476 106.296 27.5486 106.355 27.7249 106.575C28.0537 106.986 27.9508 107.671 27.5254 107.903C27.1314 108.117 26.7848 108.053 26.4535 107.704C26.2458 107.486 26.1558 107.321 26.1561 107.159ZM96.6525 107.089C96.6525 106.697 96.8168 106.425 97.1417 106.279C97.4169 106.155 97.6745 106.199 97.9759 106.421C98.2561 106.627 98.3401 106.809 98.3401 107.211C98.3401 107.867 97.7074 108.22 97.1136 107.897C96.7998 107.726 96.6525 107.468 96.6525 107.089ZM44.4128 114.396V114.194V113.992H61.7109H79.0091V114.194V114.396H61.7109H44.4128ZM46.8867 115.322C46.5341 115.27 46.4556 115.155 46.7333 115.098C47.038 115.036 76.6928 115.079 76.7525 115.142C76.7842 115.176 76.7842 115.23 76.7525 115.263C76.6842 115.335 47.3604 115.393 46.8867 115.322ZM48.7086 116.414V116.212V116.01H61.3658H74.0229V116.212V116.414H61.3658H48.7086ZM51.5852 117.423L51.5606 117.241L51.5362 117.06H61.3686C70.303 117.06 71.1969 117.071 71.1545 117.187C71.1289 117.258 71.1079 117.348 71.1079 117.389C71.1079 117.435 67.2668 117.456 61.3466 117.443L51.5852 117.423ZM54.4618 118.35C54.3596 118.279 54.3596 118.261 54.4618 118.189C54.6009 118.09 68.1476 118.115 68.2419 118.214C68.2758 118.25 68.2528 118.313 68.1907 118.354C68.0335 118.459 54.6135 118.455 54.4618 118.35ZM57.9905 119.482V119.28V119.078H61.3658H64.741V119.28V119.482H61.3658H57.9905ZM61.374 120.435C60.9546 120.46 60.7675 120.378 60.8652 120.211C60.9501 120.067 61.7877 120.137 61.7877 120.289C61.7877 120.378 61.6801 120.416 61.374 120.435ZM31.5825 82.6099V81.1433C31.5825 81.1433 30.1938 82.6026 28.739 82.6724C28.3364 82.6814 28.2003 82.6846 28.6784 82.6745C28.6986 82.6741 28.7188 82.6734 28.739 82.6724C29.5797 82.6537 31.5825 82.6099 31.5825 82.6099Z" fill="#E8BA1E"/>
</svg>
